<?xml version="1.0" encoding="UTF-8"?>
<!DOCTYPE svg PUBLIC "-//W3C//DTD SVG 1.1//EN" "http://www.w3.org/Graphics/SVG/1.1/DTD/svg11.dtd">
<!-- Creator: CorelDRAW X8 -->
<svg xmlns="http://www.w3.org/2000/svg" xml:space="preserve" width="30.161mm" height="29.5868mm" version="1.1" style="shape-rendering:geometricPrecision; text-rendering:geometricPrecision; image-rendering:optimizeQuality; fill-rule:evenodd; clip-rule:evenodd"
viewBox="0 0 462 453"
 xmlns:xlink="http://www.w3.org/1999/xlink">
 <defs>
  <style type="text/css">
   <![CDATA[
    .fil0 {fill:#3B3C3C;fill-rule:nonzero}
   ]]>
  </style>
 </defs>
 <g id="Katman_x0020_1">
  <metadata id="CorelCorpID_0Corel-Layer"/>
  <path class="fil0" d="M424 155l-18 152c-1,5 -3,9 -7,12l-120 96c-3,2 -7,4 -11,4l-74 0c-4,0 -8,-2 -11,-4l-120 -96c-4,-3 -6,-7 -6,-12l-19 -152c-1,-11 7,-20 18,-20l109 0c5,0 8,1 12,4l26 21c3,2 7,4 11,4l35 0c4,0 8,-2 11,-4l27 -21c3,-3 7,-4 11,-4l108 0c11,0 19,9 18,20zm36 -54l-45 -91c-5,-10 -19,-13 -27,-6l-123 98c-3,3 -7,4 -11,4l-23 0 -23 0c-4,0 -8,-1 -11,-4l-122 -98c-9,-7 -22,-4 -28,6l-45 90c-2,3 -2,7 -2,10l28 220c0,5 2,9 6,12l134 108c3,2 7,3 11,3l52 0 52 0c4,0 8,-1 11,-3l134 -108c4,-3 6,-7 7,-12l27 -219c1,-3 0,-7 -2,-10zm-116 129c0,1 0,2 -1,3l-19 21c0,1 -1,1 -2,1l0 0 -12 0 0 -9 23 -25c0,-1 1,-2 2,-2l6 0c1,0 2,1 2,1 1,1 1,2 1,3l0 7zm-1 65c0,1 -1,1 -2,1l-6 0c-1,0 -2,-1 -2,-1l-23 -26 0 -9 12 0 0 0c1,0 2,0 2,1l19 22c1,0 1,1 1,2l0 8c0,0 0,1 -1,2zm-37 -40l-12 0 0 0c-1,0 -2,0 -3,-1l-19 -21c0,-1 -1,-2 -1,-3l0 -7c0,-1 1,-2 1,-3 1,0 2,-1 3,-1l5 0c1,0 2,1 3,2l23 25 0 9zm0 14l-23 26c-1,0 -2,1 -3,1l-5 0c-1,0 -2,0 -3,-1 0,-1 -1,-2 -1,-2l0 -8c0,-1 1,-2 1,-2l19 -22c1,-1 2,-1 3,-1l0 0 12 0 0 9zm-145 31c-23,0 -42,-19 -42,-42 0,-24 19,-43 42,-43 23,0 42,19 42,43 0,23 -19,42 -42,42zm209 -140l-60 0c-6,0 -11,2 -16,6l-26 21c-2,1 -4,2 -7,2l-58 0c-2,0 -4,-1 -6,-2l-27 -21c-4,-4 -10,-6 -15,-6l-62 0c-7,0 -14,3 -19,9 -4,5 -7,13 -6,20l13 102c0,6 4,12 9,17l100 80c5,3 10,5 16,5l51 0c6,0 12,-2 16,-5l100 -80c6,-5 9,-11 10,-17l12 -102c1,-7 -1,-15 -6,-20 -5,-6 -12,-9 -19,-9zm-209 78c-12,0 -21,9 -21,21 0,11 9,21 21,21 12,0 21,-10 21,-21 0,-12 -9,-21 -21,-21z"/>
 </g>
</svg>
