<?xml version="1.0" encoding="UTF-8"?>
<!DOCTYPE svg PUBLIC "-//W3C//DTD SVG 1.1//EN" "http://www.w3.org/Graphics/SVG/1.1/DTD/svg11.dtd">
<!-- Creator: CorelDRAW X8 -->
<svg xmlns="http://www.w3.org/2000/svg" xml:space="preserve" width="112.415mm" height="16.4476mm" version="1.1" style="shape-rendering:geometricPrecision; text-rendering:geometricPrecision; image-rendering:optimizeQuality; fill-rule:evenodd; clip-rule:evenodd"
viewBox="0 0 36387 5324"
 xmlns:xlink="http://www.w3.org/1999/xlink">
 <defs>
  <style type="text/css">
   <![CDATA[
    .fil0 {fill:#3C3C3C;fill-rule:nonzero}
   ]]>
  </style>
 </defs>
 <g id="Katman_x0020_1">
  <metadata id="CorelCorpID_0Corel-Layer"/>
  <g id="_1662234460528">
   <path class="fil0" d="M4320 5324l-715 0c-62,0 -118,-30 -153,-81l-3307 -4825c-84,-123 4,-289 153,-289l589 0c70,0 135,34 173,92l2236 3312c102,151 338,79 338,-104l0 -3115c0,-103 83,-185 185,-185l501 0c102,0 185,82 185,185l0 4825c0,102 -83,185 -185,185z"/>
   <path class="fil0" d="M692 5324l-507 0c-102,0 -185,-83 -185,-185l0 -2002c0,-103 83,-186 186,-185l507 2c102,0 184,83 184,185l0 2000c0,102 -83,185 -185,185z"/>
   <path class="fil0" d="M8131 5324l-3126 0c-102,0 -185,-83 -185,-185l0 -372c0,-102 83,-185 185,-185l3126 0c103,0 185,83 185,185l0 372c0,102 -82,185 -185,185z"/>
   <path class="fil0" d="M7651 3002l-2646 0c-102,0 -185,-82 -185,-185l0 -378c0,-102 83,-185 185,-185l2646 0c102,0 185,83 185,185l0 378c0,103 -83,185 -185,185z"/>
   <path class="fil0" d="M8131 870l-3126 0c-102,0 -185,-82 -185,-185l0 -371c0,-103 83,-185 185,-185l3126 0c103,0 185,82 185,185l0 371c0,103 -82,185 -185,185z"/>
   <path class="fil0" d="M12183 5324l-720 0c-55,0 -108,-25 -143,-69l-1830 -2258c-65,-80 -184,-91 -263,-25l-341 284c-120,101 -304,15 -304,-141l0 -554c0,-54 24,-106 65,-141l2629 -2247c34,-29 76,-44 120,-44l712 0c173,0 251,215 119,326l-2046 1720c-78,65 -89,182 -23,260l2167 2585c101,120 16,304 -142,304z"/>
   <path class="fil0" d="M15323 742c-975,0 -1768,860 -1768,1917 0,1060 793,1923 1768,1923 1106,0 1767,-978 1767,-1923 0,-1057 -793,-1917 -1767,-1917zm0 4582c-1480,0 -2639,-1171 -2639,-2665 0,-1491 1159,-2659 2639,-2659 1479,0 2638,1168 2638,2659 0,1494 -1159,2665 -2638,2665z"/>
   <path class="fil0" d="M23381 742c-975,0 -1768,860 -1768,1917 0,1060 793,1923 1768,1923 1107,0 1768,-978 1768,-1923 0,-1057 -793,-1917 -1768,-1917zm0 4582c-1479,0 -2638,-1171 -2638,-2665 0,-1491 1159,-2659 2638,-2659 1479,0 2638,1168 2638,2659 0,1494 -1159,2665 -2638,2665z"/>
   <path class="fil0" d="M27026 5324l-507 0c-102,0 -185,-83 -185,-185l0 -1712c0,-102 83,-185 185,-185l1837 0c546,0 990,-532 990,-1186 0,-654 -444,-1186 -990,-1186l-1905 0c-54,0 -105,-23 -140,-63l-325 -372c-104,-119 -19,-306 140,-306l2244 0c1018,6 1846,871 1846,1927 0,1056 -828,1921 -1846,1928l-974 0c-102,0 -185,83 -185,185l0 970c0,102 -83,185 -185,185z"/>
   <path class="fil0" d="M31205 5324l-500 0c-102,0 -185,-83 -185,-185l0 -4825c0,-103 83,-185 185,-185l500 0c102,0 185,82 185,185l0 4825c0,102 -83,185 -185,185z"/>
   <path class="fil0" d="M36202 5324l-491 0c-76,0 -143,-45 -172,-115l-1296 -3155c-62,-153 -279,-153 -342,0l-1296 3155c-28,70 -96,115 -171,115l-490 0c-132,0 -222,-134 -172,-255l1982 -4826c28,-69 96,-114 171,-114l295 0c75,0 143,45 171,114l1982 4825c50,122 -39,256 -171,256z"/>
   <path class="fil0" d="M19010 5324l-501 0c-102,0 -185,-83 -185,-185l0 -4084c0,-102 -83,-185 -185,-185 -48,0 -95,-19 -129,-53l-379 -371c-118,-116 -36,-317 129,-317l2820 0c102,0 185,82 185,185l0 371c0,102 -83,185 -185,185l-1200 0c-102,0 -185,83 -185,185l0 4084c0,102 -83,185 -185,185z"/>
  </g>
 </g>
</svg>
