<?xml version="1.0" encoding="UTF-8"?>
<!DOCTYPE svg PUBLIC "-//W3C//DTD SVG 1.1//EN" "http://www.w3.org/Graphics/SVG/1.1/DTD/svg11.dtd">
<!-- Creator: CorelDRAW X8 -->
<svg xmlns="http://www.w3.org/2000/svg" xml:space="preserve" width="30.1611mm" height="29.5868mm" version="1.1" style="shape-rendering:geometricPrecision; text-rendering:geometricPrecision; image-rendering:optimizeQuality; fill-rule:evenodd; clip-rule:evenodd"
viewBox="0 0 848 832"
 xmlns:xlink="http://www.w3.org/1999/xlink">
 <defs>
  <style type="text/css">
   <![CDATA[
    .fil0 {fill:#FEFEFE;fill-rule:nonzero}
   ]]>
  </style>
 </defs>
 <g id="Katman_x0020_1">
  <metadata id="CorelCorpID_0Corel-Layer"/>
  <path class="fil0" d="M778 284l-34 279c-1,9 -5,17 -12,22l-220 176c-5,4 -13,7 -20,7l-136 0c-8,0 -15,-3 -21,-7l-219 -176c-7,-5 -11,-13 -12,-22l-34 -279c-3,-19 13,-37 32,-37l201 0c8,0 15,3 21,8l48 38c6,5 13,8 21,8l64 -1c7,0 15,-2 20,-7l49 -39c6,-4 13,-7 20,-7l199 0c20,0 35,18 33,37zm66 -99l-83 -167c-10,-18 -34,-24 -50,-11l-225 180c-6,5 -13,7 -21,7l-41 0 -42 0c-7,0 -14,-2 -20,-7l-225 -180c-16,-13 -41,-8 -50,11l-83 166c-3,6 -5,12 -4,19l50 403c2,8 6,16 13,21l246 197c5,5 13,8 20,8l95 0 95 0c7,0 14,-3 20,-8l246 -197c7,-5 11,-13 12,-21l50 -402c1,-6 0,-13 -3,-19zm-213 237c0,2 0,3 -1,4l-36 40c-1,2 -2,2 -4,2l0 0 -22 0 0 -17 42 -47c1,-1 3,-2 5,-2l10 0c2,0 3,1 5,2 1,1 1,3 1,5l0 13zm-1 119c-2,1 -3,2 -5,2l-10 0c-2,0 -4,-1 -5,-2l-42 -47 0 -17 22 0 0 0c2,0 3,1 4,2l36 40c1,1 1,2 1,4l0 13c0,2 0,4 -1,5zm-70 -73l-21 0 0 0c-2,0 -4,0 -5,-2l-35 -40c-1,-1 -2,-2 -2,-4l0 -13c0,-2 1,-4 2,-5 1,-1 3,-2 5,-2l10 0c2,0 3,1 5,2l41 47 0 17zm0 26l-41 47c-2,1 -3,2 -5,2l-10 0c-2,0 -4,-1 -5,-2 -1,-1 -2,-3 -2,-5l0 -13c0,-2 1,-3 2,-4l35 -40c1,-1 3,-2 5,-2l0 0 21 0 0 17zm-265 56c-42,0 -77,-34 -77,-77 0,-43 35,-78 77,-78 43,0 77,35 77,78 0,43 -34,77 -77,77zm383 -256l-110 -1c-10,0 -21,4 -29,11l-48 38c-3,3 -8,5 -12,5l-106 0c-5,0 -9,-2 -12,-4l-49 -39c-8,-7 -18,-10 -29,-10l-112 0c-13,0 -26,6 -34,16 -9,10 -13,23 -12,36l23 187c1,13 7,23 17,31l184 147c8,7 18,10 29,10l94 0c10,0 21,-3 29,-10l184 -147c9,-8 15,-18 17,-31l23 -187c1,-13 -3,-26 -12,-36 -9,-10 -21,-16 -35,-16zm-383 142c-21,0 -38,17 -38,38 0,22 17,39 38,39 21,0 39,-17 39,-39 0,-21 -18,-38 -39,-38z"/>
 </g>
</svg>
