<?xml version="1.0" encoding="UTF-8"?>
<!DOCTYPE svg PUBLIC "-//W3C//DTD SVG 1.1//EN" "http://www.w3.org/Graphics/SVG/1.1/DTD/svg11.dtd">
<!-- Creator: CorelDRAW X8 -->
<svg xmlns="http://www.w3.org/2000/svg" xml:space="preserve" width="80.7496mm" height="45.2489mm" version="1.1" style="shape-rendering:geometricPrecision; text-rendering:geometricPrecision; image-rendering:optimizeQuality; fill-rule:evenodd; clip-rule:evenodd"
viewBox="0 0 7453 4176"
 xmlns:xlink="http://www.w3.org/1999/xlink">
 <defs>
  <style type="text/css">
   <![CDATA[
    .fil0 {fill:#3B3C3C;fill-rule:nonzero}
   ]]>
  </style>
 </defs>
 <g id="Katman_x0020_1">
  <metadata id="CorelCorpID_0Corel-Layer"/>
  <g id="_1662348260112">
   <g>
    <path class="fil0" d="M885 4176l-147 0c-12,0 -24,-6 -31,-16l-677 -989c-18,-25 0,-59 31,-59l121 0c14,0 27,7 35,19l458 678c21,31 69,16 69,-21l0 -638c0,-21 17,-38 38,-38l103 0c21,0 38,17 38,38l0 988c0,21 -17,38 -38,38z"/>
    <path class="fil0" d="M142 4176l-104 0c-21,0 -38,-17 -38,-38l0 -410c0,-21 17,-38 38,-38l104 1c21,0 38,17 38,38l0 409c0,21 -17,38 -38,38z"/>
    <path class="fil0" d="M1665 4176l-640 0c-21,0 -38,-17 -38,-38l0 -76c0,-21 17,-38 38,-38l640 0c21,0 38,17 38,38l0 76c0,21 -17,38 -38,38z"/>
    <path class="fil0" d="M1567 3701l-542 0c-21,0 -38,-17 -38,-38l0 -78c0,-21 17,-38 38,-38l542 0c21,0 38,17 38,38l0 78c0,21 -17,38 -38,38z"/>
    <path class="fil0" d="M1665 3264l-640 0c-21,0 -38,-17 -38,-38l0 -76c0,-21 17,-38 38,-38l640 0c21,0 38,17 38,38l0 76c0,21 -17,38 -38,38z"/>
    <path class="fil0" d="M2495 4176l-147 0c-12,0 -22,-5 -30,-14l-374 -462c-14,-17 -38,-19 -54,-6l-70 59c-25,20 -62,3 -62,-29l0 -114c0,-11 5,-21 13,-29l538 -460c7,-6 16,-9 25,-9l146 0c35,0 51,44 24,67l-419 352c-16,14 -18,37 -5,53l444 530c21,25 4,62 -29,62z"/>
    <path class="fil0" d="M3138 3238c-199,0 -362,176 -362,392 0,217 163,394 362,394 227,0 362,-200 362,-394 0,-216 -162,-392 -362,-392zm0 938c-303,0 -540,-240 -540,-546 0,-305 237,-544 540,-544 303,0 541,239 541,544 0,306 -238,546 -541,546z"/>
    <path class="fil0" d="M4789 3238c-200,0 -362,176 -362,392 0,217 162,394 362,394 226,0 362,-200 362,-394 0,-216 -163,-392 -362,-392zm0 938c-303,0 -541,-240 -541,-546 0,-305 238,-544 541,-544 303,0 540,239 540,544 0,306 -237,546 -540,546z"/>
    <path class="fil0" d="M5535 4176l-104 0c-21,0 -37,-17 -37,-38l0 -350c0,-21 16,-38 37,-38l377 0c111,0 202,-109 202,-243 0,-134 -91,-243 -202,-243l-391 0c-11,0 -21,-5 -28,-13l-67 -76c-21,-25 -4,-63 29,-63l459 0c209,1 379,179 379,395 0,216 -170,393 -378,395l-200 0c-21,0 -38,17 -38,37l0 199c0,21 -17,38 -38,38z"/>
    <path class="fil0" d="M6391 4176l-102 0c-21,0 -38,-17 -38,-38l0 -988c0,-21 17,-38 38,-38l102 0c21,0 38,17 38,38l0 988c0,21 -17,38 -38,38z"/>
    <path class="fil0" d="M7415 4176l-101 0c-15,0 -29,-9 -35,-23l-266 -647c-12,-31 -57,-31 -70,0l-265 647c-6,14 -20,23 -35,23l-101 0c-27,0 -45,-27 -35,-52l406 -988c6,-15 20,-24 35,-24l61 0c15,0 29,9 35,24l406 988c10,25 -8,52 -35,52z"/>
    <path class="fil0" d="M3893 4176l-102 0c-21,0 -38,-17 -38,-38l0 -836c0,-21 -17,-38 -38,-38 -10,0 -19,-4 -26,-11l-78 -76c-24,-24 -7,-65 27,-65l577 0c21,0 38,17 38,38l0 76c0,21 -17,38 -38,38l-246 0c-21,0 -38,17 -38,38l0 836c0,21 -17,38 -38,38z"/>
   </g>
   <path class="fil0" d="M4889 933l-111 917c-4,28 -18,54 -40,71l-721 577c-19,15 -43,23 -67,23l-448 0c-24,0 -48,-8 -67,-23l-721 -577c-22,-17 -36,-43 -39,-71l-111 -917c-8,-64 42,-121 107,-121l660 0c24,0 48,9 67,24l159 127c19,16 43,24 67,24l211 -2c24,0 48,-8 67,-23l159 -127c19,-16 43,-24 67,-24l654 2c64,0 115,56 107,120zm218 -324l-275 -549c-31,-61 -110,-79 -164,-36l-738 590c-19,16 -43,24 -67,24l-137 0 -136 0c-25,0 -49,-8 -68,-24l-738 -590c-54,-43 -133,-26 -164,35l-274 544c-10,19 -13,41 -11,62l165 1325c4,28 18,53 40,71l808 646c19,15 43,24 67,24l311 0 311 0c25,0 48,-9 68,-24l808 -646c22,-18 36,-43 39,-71l165 -1319c3,-22 -1,-43 -10,-62zm-700 778c0,5 -1,10 -5,13l-116 131c-3,4 -9,7 -15,7l0 0 -70 0 0 -56 137 -154c4,-4 9,-7 15,-7l34 0c6,0 11,3 15,6 4,4 6,9 6,15l-1 45zm-5 389c-4,4 -9,6 -15,6l-34 0c-6,0 -11,-3 -15,-7l-137 -154 0 -55 70 0 0 0c6,0 12,2 15,6l116 131c4,4 5,8 5,13l1 46c0,5 -2,10 -6,14zm-227 -238l-71 0 0 0c-6,0 -11,-3 -15,-7l-116 -131c-3,-3 -5,-8 -5,-13l0 -45c0,-6 2,-11 6,-15 3,-3 9,-6 14,-6l34 0c6,0 12,3 15,7l138 154 0 56zm0 83l-138 154c-3,4 -9,7 -15,7l-34 0c-5,0 -11,-2 -14,-6 -4,-4 -6,-9 -6,-14l0 -46c0,-5 2,-9 5,-13l116 -131c4,-4 9,-6 15,-6l0 0 71 0 0 55zm-871 187c-140,0 -252,-115 -252,-256 0,-141 112,-255 252,-255 139,0 252,114 252,255 0,141 -113,256 -252,256zm1258 -843l-361 -2c-35,0 -69,12 -96,34l-159 127c-11,9 -25,14 -39,14l-349 1c-14,0 -28,-5 -39,-13l-159 -128c-27,-21 -61,-33 -95,-33l-368 0c-43,0 -85,19 -114,51 -29,33 -43,77 -38,120l75 615c5,40 25,76 56,102l604 482c27,22 61,34 95,34l309 0c35,0 69,-12 96,-34l603 -482c32,-26 52,-62 57,-102l74 -615c5,-43 -8,-87 -37,-120 -29,-32 -71,-51 -115,-51zm-1258 467c-70,0 -126,56 -126,126 0,69 56,126 126,126 69,0 126,-57 126,-126 0,-70 -57,-126 -126,-126z"/>
  </g>
 </g>
</svg>
