<?xml version="1.0" encoding="UTF-8"?>
<!DOCTYPE svg PUBLIC "-//W3C//DTD SVG 1.1//EN" "http://www.w3.org/Graphics/SVG/1.1/DTD/svg11.dtd">
<!-- Creator: CorelDRAW X8 -->
<svg xmlns="http://www.w3.org/2000/svg" xml:space="preserve" width="154.03mm" height="30.8007mm" version="1.1" style="shape-rendering:geometricPrecision; text-rendering:geometricPrecision; image-rendering:optimizeQuality; fill-rule:evenodd; clip-rule:evenodd"
viewBox="0 0 8781 1756"
 xmlns:xlink="http://www.w3.org/1999/xlink">
 <defs>
  <style type="text/css">
   <![CDATA[
    .fil0 {fill:white;fill-rule:nonzero}
   ]]>
  </style>
 </defs>
 <g id="Katman_x0020_1">
  <metadata id="CorelCorpID_0Corel-Layer"/>
  <g id="_1662345095088">
   <g>
    <path class="fil0" d="M3133 1347l-126 0c-11,0 -21,-6 -27,-14l-582 -850c-15,-22 1,-51 27,-51l104 0c12,0 23,6 30,16l394 583c18,27 59,14 59,-18l0 -549c0,-18 15,-32 33,-32l88 0c18,0 33,14 33,32l0 850c0,18 -15,33 -33,33z"/>
    <path class="fil0" d="M2494 1347l-89 0c-18,0 -33,-15 -33,-33l0 -352c0,-19 15,-33 33,-33l89 0c18,0 33,15 33,33l0 352c0,18 -15,33 -33,33z"/>
    <path class="fil0" d="M3804 1347l-550 0c-18,0 -33,-15 -33,-33l0 -65c0,-18 15,-33 33,-33l550 0c18,0 33,15 33,33l0 65c0,18 -15,33 -33,33z"/>
    <path class="fil0" d="M3720 938l-466 0c-18,0 -33,-15 -33,-33l0 -66c0,-18 15,-33 33,-33l466 0c18,0 32,15 32,33l0 66c0,18 -14,33 -32,33z"/>
    <path class="fil0" d="M3804 562l-550 0c-18,0 -33,-14 -33,-32l0 -66c0,-18 15,-32 33,-32l550 0c18,0 33,14 33,32l0 66c0,18 -15,32 -33,32z"/>
    <path class="fil0" d="M4518 1347l-127 0c-10,0 -19,-5 -25,-12l-322 -398c-12,-14 -33,-16 -47,-5l-60 51c-21,17 -53,2 -53,-25l0 -98c0,-9 4,-18 11,-25l463 -395c6,-5 14,-8 21,-8l126 0c30,0 44,38 21,57l-361 303c-13,12 -15,32 -4,46l382 455c18,21 3,54 -25,54z"/>
    <path class="fil0" d="M5071 540c-172,0 -312,151 -312,337 0,187 140,339 312,339 195,0 311,-172 311,-339 0,-186 -139,-337 -311,-337zm0 807c-261,0 -465,-206 -465,-470 0,-262 204,-468 465,-468 260,0 465,206 465,468 0,264 -205,470 -465,470z"/>
    <path class="fil0" d="M6490 540c-172,0 -311,151 -311,337 0,187 139,339 311,339 195,0 312,-172 312,-339 0,-186 -140,-337 -312,-337zm0 807c-260,0 -465,-206 -465,-470 0,-262 205,-468 465,-468 261,0 465,206 465,468 0,264 -204,470 -465,470z"/>
    <path class="fil0" d="M7132 1347l-89 0c-18,0 -33,-15 -33,-33l0 -301c0,-18 15,-33 33,-33l323 0c96,0 175,-94 175,-209 0,-115 -79,-209 -175,-209l-335 0c-10,0 -19,-4 -25,-11l-57 -65c-18,-21 -3,-54 25,-54l395 0c179,1 325,153 325,339 0,186 -146,338 -325,340l-172 0c-18,0 -32,14 -32,32l0 171c0,18 -15,33 -33,33z"/>
    <path class="fil0" d="M7868 1347l-88 0c-18,0 -33,-15 -33,-33l0 -850c0,-18 15,-32 33,-32l88 0c18,0 33,14 33,32l0 850c0,18 -15,33 -33,33z"/>
    <path class="fil0" d="M8748 1347l-86 0c-14,0 -26,-8 -31,-20l-228 -556c-11,-27 -49,-27 -60,0l-228 556c-5,12 -17,20 -30,20l-87 0c-23,0 -39,-24 -30,-45l349 -850c5,-12 17,-20 30,-20l52 0c13,0 25,8 30,20l349 850c9,21 -7,45 -30,45z"/>
    <path class="fil0" d="M5720 1347l-88 0c-18,0 -32,-15 -32,-33l0 -719c0,-18 -15,-33 -33,-33 -9,0 -17,-3 -23,-9l-67 -65c-20,-21 -6,-56 23,-56l497 0c18,0 32,14 32,32l0 66c0,18 -14,32 -32,32l-212 0c-18,0 -32,15 -32,33l0 719c0,18 -15,33 -33,33z"/>
   </g>
   <path class="fil0" d="M1642 600l-71 590c-2,18 -11,34 -25,45l-464 371c-12,10 -27,15 -43,15l-288 0c-16,0 -31,-5 -43,-15l-464 -371c-14,-11 -23,-27 -25,-45l-72 -590c-4,-41 28,-78 69,-78l425 0c15,0 31,6 43,16l102 81c12,10 28,16 43,16l136 -1c15,0 31,-6 43,-16l102 -81c12,-10 28,-15 43,-15l421 0c41,0 73,37 68,78zm141 -208l-177 -353c-20,-40 -71,-51 -105,-24l-475 380c-12,10 -27,15 -43,15l-88 0 -88 0c-16,0 -31,-5 -43,-15l-475 -380c-34,-27 -85,-16 -105,23l-177 350c-6,12 -8,26 -6,40l106 851c2,18 11,35 25,46l520 416c12,10 27,15 43,15l200 0 200 0c16,0 31,-5 43,-15l520 -416c14,-11 23,-28 25,-46l106 -848c2,-13 0,-27 -6,-39zm-450 500c0,3 -1,6 -3,8l-75 85c-2,2 -6,4 -9,4l-1 0 -45 0 0 -36 88 -99c3,-3 6,-4 10,-4l22 0c4,0 7,1 9,4 3,2 4,5 4,9l0 29zm-4 250c-2,2 -5,4 -9,4l-22 0c-4,0 -7,-2 -10,-5l-88 -99 0 -35 45 0 1 0c3,0 7,1 9,4l75 84c2,2 3,5 3,9l0 29c0,3 -1,6 -4,9zm-146 -153l-45 0 0 0c-4,0 -7,-2 -10,-4l-74 -85c-2,-2 -4,-5 -4,-8l0 -29c0,-4 2,-7 4,-9 2,-3 6,-4 9,-4l22 0c4,0 8,1 10,4l88 99 0 36zm0 53l-88 99c-2,3 -6,5 -10,5l-22 0c-3,0 -7,-2 -9,-4 -2,-3 -4,-6 -4,-9l0 -29c0,-4 2,-7 4,-9l74 -84c3,-3 6,-4 10,-4l0 0 45 0 0 35zm-560 120c-89,0 -162,-73 -162,-164 0,-90 73,-164 162,-164 90,0 162,74 162,164 0,91 -72,164 -162,164zm809 -542l-232 0c-22,0 -44,7 -61,21l-103 82c-7,6 -16,9 -25,9l-224 1c-9,0 -18,-4 -25,-9l-102 -82c-18,-14 -39,-22 -62,-22l-236 0c-28,0 -55,13 -74,34 -18,21 -27,49 -24,77l48 395c3,26 16,49 36,65l388 311c18,14 40,21 62,21l198 0c23,0 45,-7 62,-21l388 -311c20,-16 33,-39 36,-65l48 -395c3,-28 -5,-56 -24,-77 -19,-21 -45,-34 -74,-34zm-809 301c-45,0 -81,36 -81,81 0,44 36,81 81,81 45,0 81,-37 81,-81 0,-45 -36,-81 -81,-81z"/>
  </g>
 </g>
</svg>
